<?xml version="1.0" standalone="no"?>
<!DOCTYPE svg PUBLIC "-//W3C//DTD SVG 20010904//EN"
 "http://www.w3.org/TR/2001/REC-SVG-20010904/DTD/svg10.dtd">
<svg version="1.0" xmlns="http://www.w3.org/2000/svg"
 width="379.000000pt" height="379.000000pt" viewBox="0 0 379.000000 379.000000"
 preserveAspectRatio="xMidYMid meet">
<metadata>
Created by potrace 1.11, written by Peter Selinger 2001-2013
</metadata>
<g transform="translate(0.000000,379.000000) scale(0.100000,-0.100000)"
fill="#000000" stroke="none">
<path d="M1198 3762 l-36 -3 1 -72 2 -71 104 -17 c58 -10 123 -20 145 -22 43
-6 170 -26 196 -32 8 -2 18 -4 22 -4 3 -1 7 -333 7 -739 l1 -737 -214 0 c-118
0 -217 3 -221 7 -7 7 -10 1156 -3 1163 2 2 20 6 38 9 19 2 76 11 125 19 50 9
111 18 137 22 76 9 78 11 78 74 l0 56 -595 0 c-527 1 -595 -1 -596 -15 -1 -8
-2 -34 -3 -57 -3 -48 -10 -45 149 -68 22 -4 47 -8 55 -10 8 -2 35 -7 60 -10
25 -3 54 -8 65 -10 11 -2 28 -4 38 -4 16 -1 17 -71 17 -1316 l0 -1315 -22 -5
c-29 -6 -55 -10 -187 -30 -188 -28 -175 -22 -176 -84 0 -29 4 -55 9 -58 7 -5
1110 -8 1174 -4 8 1 12 20 12 60 l0 60 -47 6 c-27 4 -70 11 -98 16 -27 5 -70
12 -95 15 -25 4 -54 8 -65 9 -11 2 -27 4 -35 4 -43 3 -42 -11 -42 605 1 322 1
603 1 624 l1 38 218 -1 217 0 0 -800 0 -800 -105 -17 c-58 -9 -123 -19 -145
-23 -239 -34 -226 -27 -223 -112 l3 -68 743 -2 742 -3 0 74 c0 73 0 74 -27 80
-33 6 -329 52 -393 61 -25 4 -48 10 -53 14 -4 4 -6 365 -5 801 l3 794 213 1
c134 0 212 -4 213 -10 0 -5 1 -284 2 -619 2 -641 3 -635 -41 -637 -9 0 -26 -2
-37 -4 -11 -1 -37 -5 -58 -8 -21 -3 -85 -13 -143 -23 l-105 -17 3 -60 3 -60
583 -1 c321 -1 588 2 594 5 11 7 18 108 8 114 -6 4 -110 22 -180 31 -19 2 -44
6 -55 8 -11 2 -40 7 -65 11 -25 3 -53 9 -62 11 -17 5 -18 76 -18 1318 l0 1313
143 22 c143 22 190 30 217 36 8 2 17 4 20 4 4 1 5 82 1 109 0 4 -269 7 -596 7
l-595 1 0 -59 c0 -37 4 -59 13 -61 6 -2 62 -11 122 -20 209 -31 245 -39 246
-53 0 -7 1 -267 1 -578 0 -311 -1 -568 -1 -573 -1 -4 -97 -7 -213 -7 l-213 0
-3 737 c-2 695 -1 737 15 741 15 5 61 12 133 22 115 16 308 46 318 50 8 3 12
27 12 75 0 60 -3 70 -17 71 -69 2 -1406 3 -1435 1z"/>
</g>
</svg>
