<?xml version="1.0" standalone="no"?>
<!DOCTYPE svg PUBLIC "-//W3C//DTD SVG 20010904//EN"
 "http://www.w3.org/TR/2001/REC-SVG-20010904/DTD/svg10.dtd">
<svg version="1.0" 
  xmlns="http://www.w3.org/2000/svg" width="3000px" height="3000px" viewBox="0 0 3000 3000" preserveAspectRatio="xMidYMid meet">
  <g xmlns="http://www.w3.org/2000/svg" transform="translate(-450,3450) scale(0.13,-0.13)" fill="#000000" stroke="none">
    <path d="M11160 25051 l0 -438 98 -38 c652 -250 1107 -406 1547 -528 173 -49 527 -135 668 -163 l87 -18 0 -4003 0 -4003 -1240 0 -1240 0 0 3258 0 3258 198 43 c572 126 1083 294 1490 491 l182 89 0 365 0 366 -3165 0 -3165 0 0 -365 0 -365 108 -51 c412 -195 758 -317 1231 -434 164 -40 539 -115 659 -131 l52 -7 0 -7408 c0 -7046 -1 -7408 -17 -7413 -10 -2 -56 -12 -103 -21 -551 -107 -1249 -311 -1800 -526 l-130 -50 0 -365 0 -364 3165 0 3165 0 0 365 0 366 -77 35 c-440 202 -1020 392 -1568 514 -99 22 -190 42 -202 45 l-23 5 0 3495 0 3495 1240 0 1240 0 0 -4233 0 -4233 -112 -18 c-708 -111 -1430 -324 -2125 -629 l-163 -71 0 -438 0 -438 3840 0 3840 0 0 438 0 438 -152 67 c-429 187 -850 325 -1453 476 -215 53 -553 129 -702 157 l-93 18 0 4233 0 4233 1240 0 1240 0 0 -3495 0 -3494 -37 -9 c-21 -6 -112 -26 -203 -47 -458 -103 -1015 -283 -1454 -469 l-171 -73 -3 -366 -2 -367 3165 0 3165 0 -2 366 -3 365 -90 40 c-446 201 -1055 383 -1701 509 -115 22 -219 43 -231 46 l-23 4 0 7410 c0 6698 1 7410 16 7410 24 0 507 103 749 160 513 121 818 226 1163 399 l122 61 0 365 0 365 -3165 0 -3165 0 2 -367 3 -366 120 -54 c412 -187 952 -367 1552 -519 l193 -49 0 -3257 0 -3258 -1240 0 -1240 0 0 4003 0 4003 118 23 c185 38 716 173 957 245 406 120 778 252 1143 403 l182 76 0 438 0 439 -3840 0 -3840 0 0 -439z"/>
  </g>
</svg>
